<?xml version="1.0" encoding="utf-8"?>
<!-- Generator: Adobe Illustrator 19.2.0, SVG Export Plug-In . SVG Version: 6.00 Build 0)  -->
<svg version="1.1" id="Layer_1" xmlns="http://www.w3.org/2000/svg" xmlns:xlink="http://www.w3.org/1999/xlink" x="0px" y="0px"
	 viewBox="0 0 344.8 175.3" style="enable-background:new 0 0 344.8 175.3;" xml:space="preserve">
<style type="text/css">
	.st0{fill:#241F59;}
	.st1{fill:#00B5AD;}
	.st2{fill:#FFD400;}
	.st3{fill:#EF413D;}
</style>
<title>color_logos</title>
<path class="st0" d="M106.5,76.2v22.7c0,4.3,2.7,6.4,6.4,6.4c1.3,0,2.5-0.2,3.7-0.8v-3.7c-0.9,0.6-2,1-3.1,1c-2,0-3.1-1-3.1-3.3
	V85.8h5.7v-3.4h-5.6v-6.2L106.5,76.2L106.5,76.2z"/>
<path class="st0" d="M123.2,76.2v22.7c0,4.3,2.7,6.4,6.5,6.4c1.3,0,2.5-0.2,3.7-0.8v-3.7c-0.9,0.6-2,1-3.1,1c-2,0-3.1-1-3.1-3.3
	V85.8h5.7v-3.4h-5.6v-6.2L123.2,76.2L123.2,76.2z"/>
<path class="st0" d="M162.8,82.8v22h4V90.5c0.6-2.5,2.8-4.3,5.4-4.4c0.9,0,1.8,0.2,2.6,0.6v-4.1c-0.7-0.3-1.5-0.4-2.3-0.4
	c-2.5,0-4.7,1.4-5.8,3.6v-3.1L162.8,82.8L162.8,82.8z"/>
<path class="st0" d="M244.4,82.8v22h4V90.5c0.6-2.5,2.8-4.3,5.4-4.4c0.9,0,1.8,0.2,2.6,0.6v-4.1c-0.7-0.3-1.5-0.4-2.3-0.4
	c-2.5,0-4.7,1.4-5.8,3.6v-3.1L244.4,82.8L244.4,82.8z"/>
<polygon class="st0" points="205.1,98.2 198.3,72.4 194.9,72.4 188,98.2 181.4,72.4 177.2,72.4 185.9,104.8 189.6,104.8 196.6,79.5 
	203.4,104.8 207.2,104.8 215.8,72.4 211.8,72.4 "/>
<rect x="261.3" y="70.5" class="st0" width="4" height="34.4"/>
<path class="st0" d="M69.5,88c3-1,4.9-3.9,4.8-7c0-5.6-4-8.6-10.7-8.6H52.9v32.4h11.8c6.7,0,10.8-3.2,10.8-9.1
	C75.5,92.1,73,88.9,69.5,88z M64.6,101.2h-7.7V90l0,0v-3.5l0,0V76h6.6c4.3,0,6.7,1.6,6.7,5.2s-2.4,5.3-6.7,5.3h-2.8V90h3.9
	c4.4,0,6.7,2.2,6.7,5.6S69,101.2,64.6,101.2z"/>
<path class="st0" d="M287.8,97.4c-1,2.4-3.3,4-5.9,4.1c-4.5,0-7.1-3.2-7.1-7.9c0-5.3,3.7-7.6,7.1-7.6c0.7,0,1.5,0,2.2,0.3v-3.5
	c-0.9-0.3-1.8-0.5-2.8-0.5c-6.2,0-10.7,4.6-10.7,11.5c0,6.7,3.8,11.5,10.7,11.5c2.6,0,5-1.2,6.6-3.2v2.8h4V70.5h-4L287.8,97.4z"/>
<path class="st1" d="M248.9,36.6c-0.9,0-1.8,0.2-2.6,0.5c-27.9-39.5-82.6-49-122.1-21c-17.2,12-29.4,29.8-34.5,50.1h4.1
	C105.6,21.6,151.4-5.1,196,6.8c18.9,5,35.5,16.5,46.8,32.5c-3.1,3.3-3,8.5,0.3,11.7c3.3,3.1,8.5,3,11.7-0.3c3.1-3.3,3-8.5-0.3-11.7
	C253,37.4,251,36.6,248.9,36.6z M248.9,49.2c-2.4,0-4.3-1.9-4.3-4.3s1.9-4.3,4.3-4.3c2.4,0,4.3,1.9,4.3,4.3S251.2,49.2,248.9,49.2
	L248.9,49.2z"/>
<path class="st2" d="M215.7,52.5c3.6,4.1,6.5,8.7,8.6,13.7h4.3c-11.9-29.8-45.7-44.3-75.5-32.4c-4.8,1.9-9.3,4.4-13.4,7.5
	c-3.8-2.7-9.1-1.9-11.9,2c-2.7,3.8-1.9,9.1,2,11.9c3.8,2.7,9.1,1.9,11.9-2c1.9-2.6,2.1-6,0.6-8.9c9.3-7,20.7-10.8,32.3-10.7
	C190.4,33.6,205.4,40.5,215.7,52.5z M135,52.4c-2.4,0-4.3-1.9-4.3-4.3s1.9-4.3,4.3-4.3c2.4,0,4.3,1.9,4.3,4.3S137.4,52.4,135,52.4
	L135,52.4z"/>
<path class="st3" d="M174.7,171.3c-27.1,0-52.5-13.1-68.2-35.2c3.2-3.4,3.1-8.8-0.4-12c-3.4-3.2-8.8-3.1-12,0.4
	c-3.2,3.4-3.1,8.8,0.4,12c2.3,2.2,5.7,2.9,8.7,1.8c28,39.5,82.8,48.8,122.3,20.8c6.6-4.7,12.5-10.2,17.5-16.5h-5.2
	C221.9,160.9,198.9,171.4,174.7,171.3z M100.4,134.9c-2.4,0-4.3-1.9-4.3-4.3s1.9-4.3,4.3-4.3s4.3,1.9,4.3,4.3
	C104.7,132.9,102.8,134.9,100.4,134.9L100.4,134.9z"/>
<path class="st2" d="M174.6,146c22.2,0,42.5-12.7,52.3-32.7h-4.5c-14.1,26.4-46.9,36.4-73.4,22.3c-9.5-5.1-17.3-12.8-22.3-22.3h-4.5
	C132,133.4,152.4,146.1,174.6,146z"/>
<path class="st0" d="M99.8,98.2h-3.6c-0.6,2.5-2.9,3.6-5.8,3.6c-3,0.1-5.7-1.9-6.5-4.8c-0.7-2.4-0.6-4.9,0.2-7.2
	c1-2.5,3.5-4.2,6.2-4c3.2,0,5.8,2.6,5.9,5.8h-8.8v2.9h12.7v-1.3c0-5.4-3.5-10.8-10-10.8c-6,0-10.6,4.9-10.6,11.5
	c0,6.9,4.4,11.5,10.8,11.5C95.6,105.3,98.9,102.4,99.8,98.2z"/>
<path class="st0" d="M157.4,98.2h-3.6c-0.6,2.5-2.9,3.6-5.8,3.6c-3,0.1-5.7-1.9-6.5-4.8c-0.7-2.4-0.6-4.9,0.2-7.2
	c1-2.5,3.5-4.2,6.2-4c3.2,0,5.8,2.6,5.9,5.8h-8.9v2.9h12.8v-1.3c0-5.4-3.5-10.8-10-10.8c-6,0-10.6,4.9-10.6,11.5
	c0,6.9,4.4,11.5,10.8,11.5C153.2,105.3,156.5,102.4,157.4,98.2z"/>
<path class="st0" d="M230.2,82.3v4c3.2,1.1,5.3,4.1,5.2,7.5c0,4.3-3.2,7.8-7.2,7.8s-7.2-3.5-7.2-7.8c-0.1-3.4,2.1-6.4,5.3-7.5v-4
	c-5.4,1.1-9.3,6-9.2,11.5c0,6.4,5,11.7,11.1,11.7s11.1-5.2,11.1-11.7C239.4,88.3,235.5,83.5,230.2,82.3z"/>
<path class="st0" d="M301,129.5c0.4,1.3,1.6,1.9,3.2,1.9s2.8-0.5,2.8-1.8c0-0.9-0.7-1.4-2.1-1.7l-2.7-0.7c-1.9-0.5-3.2-1.5-3.2-3.4
	c0-2.3,2.1-3.8,4.8-3.8c3,0,4.7,1.4,5.2,3.6h-2.3c-0.4-1.1-1.4-1.7-3-1.7c-1.3,0-2.5,0.5-2.5,1.8c0,0.9,0.6,1.3,1.9,1.6l2.6,0.6
	c2.3,0.6,3.4,1.8,3.4,3.6c0,2.4-2.1,3.9-5,3.9s-5.1-1.4-5.5-3.8L301,129.5L301,129.5z"/>
<path class="st0" d="M313.4,116.9c-0.8,0-1.4-0.7-1.5-1.4c0.1-0.8,0.8-1.4,1.6-1.3c0.7,0.1,1.3,0.6,1.3,1.3
	C314.8,116.3,314.2,116.9,313.4,116.9z M314.5,132.9h-2.2v-13h2.3L314.5,132.9L314.5,132.9z"/>
<path class="st0" d="M333.8,120h2.3v1.7c0.9-1.3,2.4-2,4-2c3,0,4.7,2,4.7,4.9v8.3h-2.4v-8c0-1.9-0.9-3.2-3-3.2c-1.6,0-2.9,1-3.4,2.5
	v8.6h-2.3v-13L333.8,120z"/>
<path class="st0" d="M327.4,120v4.6l0,0v4.2c-0.7,1.3-2,2.1-3.4,2.1c-2.5,0-4.3-2-4.3-4.7c-0.2-2.2,1.4-4.1,3.6-4.3
	c0.2,0,0.4,0,0.7,0c0.4,0,0.8,0.1,1.2,0.2v-2c-0.5-0.2-1-0.3-1.6-0.3c-3.3-0.2-6.1,2.4-6.3,5.7c0,0.2,0,0.5,0,0.7
	c0,3.5,2.4,6.8,6.3,6.8c1.5,0,2.8-0.6,3.8-1.8v1c0,2.9-1.3,4.4-3.7,4.4c-1.9,0-3.1-0.8-3.5-2.5H318c0.4,2.8,2.5,4.4,5.8,4.4
	c3.5,0,6-2.1,6-6.5v-12H327.4z"/>
<path class="st0" d="M296.7,126.2c0-3.7-2-6.2-5.7-6.2s-6.1,2.8-6.1,6.6s2.5,6.6,6.2,6.6c3,0,4.9-1.7,5.4-4.1h-2.1
	c-0.4,1.4-1.6,2.1-3.3,2.1c-1.4,0.1-2.7-0.7-3.4-1.9l0,0c-0.2-0.4-0.3-0.8-0.4-1.3c0-0.1,0-0.1,0-0.2c-0.1-0.6-0.2-1.1-0.1-1.7
	c0-0.8,0.2-1.6,0.6-2.3v-0.1c0.2-0.4,0.4-0.7,0.7-1l0,0c0.7-0.7,1.6-1,2.6-1c1.7-0.1,3.2,1.1,3.4,2.9c0,0.2,0,0.3,0,0.5h-5v1.8h7.3
	L296.7,126.2L296.7,126.2z"/>
<path class="st0" d="M279.5,113.3v7.9l0,0v7.9c-0.7,1.3-2,2.1-3.4,2.1c-2.6,0-4.3-2-4.3-4.6c-0.2-2.3,1.5-4.3,3.7-4.5
	c0.6-0.1,1.2,0,1.8,0.2v-2c-0.6-0.2-1.2-0.3-1.8-0.3c-3.7,0.2-6,2.8-6,6.6c0,3.8,2.3,6.7,6.2,6.7c1.5,0,2.9-0.7,3.8-1.9v1.6h2.3
	v-19.6h-2.3V113.3z"/>
<polygon class="st0" points="258.9,120 255.1,130.1 251.3,120 248.9,120 254,133 251.9,138.1 254.2,138.1 261.2,120 "/>
<path class="st0" d="M237.6,113.3v7.9l0,0v7.9c0.6,1.3,2,2.2,3.4,2.2c2.6,0,4.3-2,4.3-4.6c0.2-2.3-1.5-4.3-3.7-4.5
	c-0.6-0.1-1.2,0-1.8,0.2v-2c0.6-0.2,1.2-0.3,1.8-0.3c3.7,0.2,6,2.8,6,6.6c0,3.8-2.3,6.7-6.2,6.7c-1.5,0-2.9-0.7-3.8-1.9v1.6h-2.3
	v-19.7h2.3V113.3z"/>
</svg>
