<?xml version="1.0" encoding="utf-8"?>
<!-- Generator: Adobe Illustrator 20.0.0, SVG Export Plug-In . SVG Version: 6.00 Build 0)  -->
<svg version="1.1" id="Layer_1" xmlns="http://www.w3.org/2000/svg" xmlns:xlink="http://www.w3.org/1999/xlink" x="0px" y="0px"
	 viewBox="0 0 360 360" enable-background="new 0 0 360 360" xml:space="preserve">
<g>
	<path fill="#FFD400" d="M237.6,284.7c-32.5,0-59-26.5-59-59h5.5c0,29.5,24,53.5,53.5,53.5c29.5,0,53.5-24,53.5-53.5
		c0-20.4-11.3-38.7-29.5-47.8l2.5-4.9c20.1,10.1,32.5,30.3,32.5,52.7C296.6,258.2,270.1,284.7,237.6,284.7z"/>
	<path fill="#EF413D" d="M184.1,132.4h-5.5c0-28.4-23.1-51.6-51.6-51.6c-22.7,0-42.5,14.5-49.2,36.1l-5.2-1.6
		c7.5-23.9,29.4-40,54.5-40C158.5,75.3,184.1,100.9,184.1,132.4z"/>
	<path fill="#241F59" d="M72.8,132.3c-5.2,0-9.4-4.2-9.4-9.4s4.2-9.4,9.4-9.4s9.4,4.2,9.4,9.4S77.9,132.3,72.8,132.3z M72.8,118.6
		c-2.4,0-4.4,2-4.4,4.4s2,4.4,4.4,4.4s4.4-2,4.4-4.4S75.2,118.6,72.8,118.6z"/>
	<path fill="#00B5AD" d="M256.4,182.4c-5.2,0-9.4-4.2-9.4-9.4s4.2-9.4,9.4-9.4c5.2,0,9.4,4.2,9.4,9.4S261.6,182.4,256.4,182.4z
		 M256.4,168.6c-2.4,0-4.4,2-4.4,4.4s2,4.4,4.4,4.4c2.4,0,4.4-2,4.4-4.4S258.8,168.6,256.4,168.6z"/>
	<rect x="178.7" y="175.2" fill="#241F59" width="5.6" height="45.1"/>
	<rect x="70.1" y="137.9" fill="#00B5AD" width="5.6" height="31.7"/>
	<path fill="#00B5AD" d="M100.8,137.2c-4.2,0-7.8,2.2-9.7,4.8v-4.1h-5.6v31.7h5.6v-21.1c1.2-3.6,4.5-6.1,8.4-6.1
		c5,0,7.3,3.2,7.3,7.8v19.5h5.6v-20.4C112.4,142.1,108.3,137.2,100.8,137.2z"/>
	<path fill="#00B5AD" d="M123.3,161.4c0,6.1,3.7,9,9,9c2,0,3.9-0.4,5.2-1.1V164c-1.1,0.7-2.7,1.3-4.3,1.3c-2.8,0-4.4-1.4-4.4-4.6
		v-18.1h7.9v-4.7h-7.9v-8.7h-5.5V161.4z"/>
	<path fill="#00B5AD" d="M184.2,148.7c1.1-3.8,4.1-6.1,7.6-6.1c1.4,0,2.8,0.3,3.7,0.9v-5.7c-0.6-0.3-1.8-0.5-3.2-0.5
		c-3.6,0-6.7,2.1-8.1,5v-4.3h-5.6v31.8h5.6V148.7z"/>
	<path fill="#00B5AD" d="M157.3,138c-8.4,0-14.9,6.8-14.9,16.2c0,9.6,6.2,16.2,15.2,16.2c7.4,0,12.1-4.1,13.3-10h-5.1
		c-0.9,3.5-4.1,5-8.2,5c-4.5,0-7.7-2.7-9.1-6.8c-1-3.1-0.7-7.7,0.3-10.1c1.7-4.2,5.3-5.6,8.7-5.6c4.7,0,8.3,4.1,8.3,8.2h-12.4v4
		h17.9v-1.9C171.3,145.6,166.4,138,157.3,138z"/>
	<polygon fill="#241F59" points="231.1,232.9 236.6,232.9 254.1,188 248.3,188 239,213.4 229.4,188 223.4,188 236.1,220.6 	"/>
	<path fill="#241F59" d="M156.4,187.6c-1.4,0-2.7,0.2-3.9,0.6v5.3c0.9-0.3,1.9-0.5,2.9-0.5c6.3,0,10.1,4.4,10.1,11.3
		c0,6.9-3.6,11.2-9.9,11.2c-3.5,0-6.5-1.9-8.5-4.4v-23h-5.5v45h5.5v-15.5c2,1.7,5.2,3.4,9.3,3.4c9.7,0,14.8-7.6,14.8-16.6
		C171.2,195.2,166.1,187.6,156.4,187.6z"/>
	<path fill="#241F59" d="M205.5,187.9c-6.3,0-11.2,3.8-12.3,9.2h5.5c1-2.9,3.3-4.3,6.7-4.3c4.7,0,7.3,2.8,7.3,6.8v13
		c-1,2.3-4.3,3.9-7.7,3.9c-4,0-7.8-2.6-7.8-5.9c0-4.6,4.3-6.3,7.7-6.3c0.8,0,1.6,0.1,2.4,0.4v-4.3c-0.9-0.2-1.8-0.3-2.7-0.3
		c-6.2,0-12.4,3.9-12.4,10.6c0,6.3,5.1,10.1,11.7,10.1c3.9,0,7.4-1.4,8.7-2.7v2.3h5.3v-21.1C218,192.4,213.3,187.9,205.5,187.9z"/>
</g>
</svg>
