<svg id="Layer_1" data-name="Layer 1" xmlns="http://www.w3.org/2000/svg" viewBox="0 0 360 360"><defs><style>.cls-1{fill:#252159;}</style></defs><title>icons</title><path class="cls-1" d="M177.05,193.58A16,16,0,1,0,161,177.5,16.09,16.09,0,0,0,177.05,193.58Z"/><polygon class="cls-1" points="212.14 157.85 212.14 144.38 212.14 142.38 210.12 142.38 196.66 142.43 196.71 157.9 212.14 157.85"/><path class="cls-1" d="M177.05,97.25a80.26,80.26,0,1,0,80.26,80.26A80.35,80.35,0,0,0,177.05,97.25Zm45.65,70.9v37.37a17.66,17.66,0,0,1-17.64,17.65H149a17.66,17.66,0,0,1-17.64-17.65v-56A17.66,17.66,0,0,1,149,131.86h56a17.66,17.66,0,0,1,17.65,17.64Z"/><path class="cls-1" d="M202,177.51a25,25,0,1,1-48.1-9.37H140.3v37.37a8.75,8.75,0,0,0,8.75,8.74h56a8.75,8.75,0,0,0,8.75-8.74V168.14H200.17A24.63,24.63,0,0,1,202,177.51Z"/></svg>