<svg id="Layer_1" data-name="Layer 1" xmlns="http://www.w3.org/2000/svg" viewBox="0 0 360 360"><defs><style>.cls-1{fill:#252159;}</style></defs><title>icons</title><path class="cls-1" d="M180,103.74A80.26,80.26,0,1,0,260.26,184,80.35,80.35,0,0,0,180,103.74Zm35.81,61.89c0,.8.05,1.6.05,2.4,0,24.41-18.58,52.55-52.56,52.55A52.25,52.25,0,0,1,135,212.29a37.3,37.3,0,0,0,27.35-7.65,18.49,18.49,0,0,1-17.26-12.83,18.54,18.54,0,0,0,8.34-.31,18.48,18.48,0,0,1-14.82-18.11c0-.08,0-.16,0-.23a18.4,18.4,0,0,0,8.36,2.31,18.5,18.5,0,0,1-5.72-24.66,52.45,52.45,0,0,0,38.07,19.31,18.49,18.49,0,0,1,31.48-16.85,36.87,36.87,0,0,0,11.74-4.48A18.56,18.56,0,0,1,214.4,159,36.73,36.73,0,0,0,225,156.09,37.16,37.16,0,0,1,215.81,165.64Z"/></svg>