<?xml version="1.0" encoding="utf-8"?>
<!-- Generator: Adobe Illustrator 20.0.0, SVG Export Plug-In . SVG Version: 6.00 Build 0)  -->
<svg version="1.1" id="Layer_1" xmlns="http://www.w3.org/2000/svg" xmlns:xlink="http://www.w3.org/1999/xlink" x="0px" y="0px"
	 viewBox="0 0 360 360" enable-background="new 0 0 360 360" xml:space="preserve">
<g>
	<defs>
		<rect id="SVGID_1_" x="99.7" y="102.6" width="160.5" height="160.5"/>
	</defs>
	<clipPath id="SVGID_2_">
		<use xlink:href="#SVGID_1_"  overflow="visible"/>
	</clipPath>
	<path clip-path="url(#SVGID_2_)" fill="#252159" d="M207.1,221.1c-3.7,1.8-7.1,3-10.1,3.7c-3,0.7-6.3,1.1-9.8,1.1
		c-4,0-6.3-0.5-9.4-1.5c-3.1-1-5.7-2.5-7.8-4.3c-2.2-1.9-3.7-3.8-4.5-5.9c-0.8-2.1-1.3-5.2-1.3-9.1v-30.6h-11.9V162
		c3.4-1.1,7.4-2.7,9.8-4.8c2.5-2.1,4.4-4.6,5.9-7.5c1.5-2.9,2.5-6.6,3.1-11.1h12.4v20.2h20.2v15.6h-20.2v22.4c0,5.1-0.1,8,0.5,9.4
		c0.5,1.4,1.9,2.9,3.3,3.8c1.9,1.2,4.1,1.7,6.6,1.7c4.4,0,8.8-1.4,13.2-4.3L207.1,221.1L207.1,221.1z M180,102.6
		c-44.3,0-80.3,36-80.3,80.3c0,44.3,36,80.3,80.3,80.3c44.3,0,80.3-36,80.3-80.3C260.3,138.6,224.3,102.6,180,102.6"/>
</g>
</svg>
