<?xml version="1.0" encoding="utf-8"?>
<!-- Generator: Adobe Illustrator 19.2.0, SVG Export Plug-In . SVG Version: 6.00 Build 0)  -->
<svg version="1.1" id="Layer_1" xmlns="http://www.w3.org/2000/svg" xmlns:xlink="http://www.w3.org/1999/xlink" x="0px" y="0px"
	 viewBox="0 0 367.2 329.6" style="enable-background:new 0 0 367.2 329.6;" xml:space="preserve">
<style type="text/css">
	.st0{fill:#FFD400;}
	.st1{fill:#EF413D;}
	.st2{fill:#241F59;}
	.st3{fill:#00B5AD;}
</style>
<title>interplay</title>
<path class="st0" d="M274.3,329.6c-51.2-0.1-92.8-41.6-92.8-92.9h8.7c0,46.5,37.7,84.2,84.2,84.2c46.5,0,84.2-37.7,84.2-84.2
	c0-31.8-18-60.9-46.4-75.2l3.9-7.7c45.9,23,64.4,78.8,41.4,124.7C341.6,309.8,309.4,329.6,274.3,329.6z"/>
<path class="st1" d="M190.1,89.8h-8.6c0-44.9-36.3-81.3-81.2-81.3c-35.5,0-67,23.1-77.6,57l-8.2-2.6C29.4,15.5,79.9-10.7,127.2,4.2
	C164.6,16,190,50.6,190.1,89.8z"/>
<path class="st2" d="M14.8,89.7C6.6,89.7,0,83.1,0,75s6.6-14.8,14.8-14.8c8.2,0,14.8,6.6,14.8,14.8C29.5,83.1,22.9,89.7,14.8,89.7z
	 M14.8,68.1c-3.8,0-6.9,3.1-6.9,6.9s3.1,6.9,6.9,6.9s6.9-3.1,6.9-6.9l0,0C21.6,71.2,18.6,68.1,14.8,68.1z"/>
<path class="st3" d="M303.9,168.5c-8.2,0-14.8-6.6-14.8-14.8c0-8.2,6.6-14.8,14.8-14.8c8.2,0,14.8,6.6,14.8,14.8
	C318.6,161.9,312,168.5,303.9,168.5z M303.9,146.8c-3.8,0-6.9,3.1-6.9,6.9s3.1,6.9,6.9,6.9c3.8,0,6.9-3.1,6.9-6.9
	C310.8,149.9,307.7,146.8,303.9,146.8L303.9,146.8z"/>
<rect x="181.6" y="157.3" class="st2" width="8.7" height="71.1"/>
<rect x="10.6" y="98.5" class="st3" width="8.7" height="49.9"/>
<path class="st3" d="M59,97.5c-6,0-11.6,2.8-15.3,7.5v-6.5H35v49.9h8.7v-33.2c1.9-5.7,7.2-9.6,13.2-9.7c7.8,0,11.4,5,11.4,12.2v30.7
	h8.9v-32.1C77.1,105,70.7,97.5,59,97.5z"/>
<path class="st3" d="M94.4,135.4c0,9.6,5.8,14.1,14.2,14.1c2.8,0,5.6-0.5,8.2-1.8v-8.1c-2,1.3-4.4,2-6.8,2.1c-4.4,0-6.9-2.2-6.9-7.2
	V106h12.5v-7.5h-12.5V84.9h-8.7L94.4,135.4L94.4,135.4z"/>
<path class="st3" d="M190.3,115.4c1.8-6.1,6.5-9.7,12-9.7c2-0.1,4.1,0.4,5.8,1.4v-9c-1.6-0.6-3.3-0.9-5-0.8c-5.4,0-10.3,3-12.8,7.8
	v-6.8h-8.7v50h8.7L190.3,115.4L190.3,115.4z"/>
<path class="st3" d="M147.8,98.6c-13.2,0-23.4,10.7-23.4,25.5c0,15.2,9.7,25.5,23.9,25.5c11.7,0,19.1-6.4,20.9-15.7h-8
	c-1.4,5.5-6.5,7.9-12.9,7.9c-7.1,0-12.2-4.2-14.3-10.6c-1.5-5.2-1.3-10.8,0.4-15.9c2.6-6.5,8.4-8.7,13.8-8.7
	c7.1,0.1,12.9,5.8,13.1,12.9h-19.6v6.3h28.2v-3C169.9,110.6,162.1,98.6,147.8,98.6z"/>
<polygon class="st2" points="264,248.1 272.7,248.1 300.2,177.3 291.1,177.3 276.4,217.4 261.4,177.3 252,177.3 271.8,228.7 "/>
<path class="st2" d="M146.4,176.7c-2.1,0-4.2,0.4-6.1,1v8.3c1.5-0.5,3.1-0.7,4.6-0.8c9.9,0,16,6.9,16,17.7s-5.7,17.6-15.6,17.6
	c-5.3-0.1-10.3-2.7-13.4-7v-36.2h-8.7v70.8h8.7v-24.4c4.1,3.5,9.2,5.4,14.6,5.4c15.3,0,23.3-12,23.3-26.2S161.6,176.7,146.4,176.7z"
	/>
<path class="st2" d="M223.7,177.3c-9.9,0-17.6,6-19.3,14.4h8.6c1.6-4.6,5.1-6.8,10.6-6.8c7.5,0,11.4,4.5,11.4,10.6V216
	c-1.5,3.7-6.8,6.2-12.1,6.2c-6.3,0-12.2-4-12.2-9.2c0-7.2,6.8-9.9,12.1-9.9c1.3,0,2.6,0.2,3.8,0.6v-6.8c-1.4-0.3-2.8-0.5-4.3-0.5
	c-9.8,0-19.4,6.1-19.4,16.7c0,9.9,8,15.9,18.5,15.9c6.2,0,11.6-2.2,13.6-4.2v3.7h8.4v-33.1C243.4,184.3,236.1,177.3,223.7,177.3z"/>
</svg>
