<svg id="Layer_1" data-name="Layer 1" xmlns="http://www.w3.org/2000/svg" viewBox="0 0 317.98 306"><defs><style>.cls-1{fill:#241f59;}.cls-2{fill:#ffd400;}.cls-3{fill:#00b5ad;}.cls-4{fill:#ef413d;}</style></defs><title>color_logos</title><polygon class="cls-1" points="194.51 165.94 184.79 129.43 180.07 129.43 170.35 165.94 160.92 129.43 155.09 129.43 167.28 175.36 172.59 175.36 182.39 139.53 192.04 175.36 197.43 175.36 209.63 129.43 203.94 129.43 194.51 165.94"/><path class="cls-1" d="M142.92,151.57c3.59-1.12,6.73-4.49,6.73-9.95,0-7.93-5.69-12.2-15.19-12.2H119.35v45.94H136c9.43,0,15.26-4.56,15.26-12.94A11.08,11.08,0,0,0,142.92,151.57Zm-7,18.63H125.11V154.34h0V149.4h0V134.59h9.35c6.14,0,9.5,2.32,9.5,7.33s-3.37,7.48-9.5,7.48h-4v4.94H136c6.21,0,9.5,3.07,9.5,7.93S142.17,170.2,136,170.2Z"/><path class="cls-2" d="M88.14,121.51A82.82,82.82,0,1,0,115,86.63a12.16,12.16,0,1,0,3.79,4.28A75.79,75.79,0,0,1,164.6,75.64a76.66,76.66,0,1,1-71.18,48Zm20.3-19.09a6,6,0,1,1,6-6A6.05,6.05,0,0,1,108.44,102.42Z"/><path class="cls-3" d="M46.2,152.36A118.37,118.37,0,0,1,261.11,83.83a12.21,12.21,0,1,0,4.82-3.07A124.12,124.12,0,0,0,44.66,184.38l5.51-1.47A118.72,118.72,0,0,1,46.2,152.36ZM275.69,91.85a6,6,0,1,1-6-6A6.05,6.05,0,0,1,275.69,91.85Z"/><path class="cls-4" d="M284.48,120.13L279,121.61A118.39,118.39,0,0,1,68.18,221a12.1,12.1,0,1,0-4.77,3.13A124.12,124.12,0,0,0,284.48,120.13Zm-231,93a6,6,0,1,1,6,6A6.05,6.05,0,0,1,53.51,213.1Z"/></svg>