<?xml version="1.0" encoding="utf-8"?>
<!-- Generator: Adobe Illustrator 19.2.0, SVG Export Plug-In . SVG Version: 6.00 Build 0)  -->
<svg version="1.1" id="Layer_1" xmlns="http://www.w3.org/2000/svg" xmlns:xlink="http://www.w3.org/1999/xlink" x="0px" y="0px"
	 viewBox="0 0 440.1 701" style="enable-background:new 0 0 440.1 701;" xml:space="preserve">
<style type="text/css">
	.st0{fill:#FFFFFF;}
	.st1{fill:#EF413D;}
	.st2{fill:#00B5AD;}
	.st3{fill:#FFD400;}
	.st4{fill:#FFD300;}
</style>
<title>phone theme</title>
<path class="st0" d="M17.7,667.9c-6-2.5-11.9-5.4-17.7-8.5V701h440v-42c-44.6,24.7-126.4,41.2-220,41.2c-70.2,0-118-6.8-162.3-18.7
	L17.7,667.9z"/>
<path class="st0" d="M220,701L220,701z"/>
<rect class="st0" width="440" height="34.7"/>
<path class="st1" d="M312.1,123.5l5.1,13.8H307L312.1,123.5z M307.9,113.1L292,154.7h8.7l3.7-10H320l3.7,10h8.8l-15.9-41.6H307.9z"
	/>
<path class="st2" d="M222,34.7h-7.3h-4.8C115.7,33.6,35.7,19.7,0,0.1v659.3c5.8,3.2,11.7,6,17.8,8.6
	c12.4-98.7,41.1-194.8,84.9-284.1c-6.8-6.1-12.6-13.4-17.1-21.4c-22.5-41.3-7.3-92.9,33.9-115.5c41.3-22.5,92.9-7.3,115.5,33.9
	c22.5,41.3,7.3,92.9-33.9,115.5c-19,10.3-41.2,13-62.1,7.4C96.4,491.1,69,585,57.9,681.5c44.1,11.9,92,19.1,162.2,19.1
	c93.6,0,175.4-16.5,220-41.2V0C400.9,19.3,317.9,34.7,222,34.7z M278.3,628.3h-19.1v48.3h-12.4v-48.3h-19v-10.8h50.4L278.3,628.3
	L278.3,628.3z M359.3,89.6h-33.6V105h30.5v12.6h-30.5v16.8h33.6v13h-48.1V76.6h48.1V89.6L359.3,89.6z"/>
<path class="st3" d="M102.8,310v27.5H86.4v-79.3h12.3 M98.7,258.2h20c16.8,0,27.9,9,27.9,26S135.5,310,118.7,310h-15.9 M102.8,295.9
	h14.9c8.5,0,12.7-4.9,12.7-11.8c0-7.1-4.1-11.9-12.7-11.9h-14.9 M102.8,272.3v23.6"/>
<path class="st2" d="M181.3,360c21.2-11.6,29-38.2,17.5-59.4c-11.6-21.2-38.2-29-59.4-17.5c-21.2,11.6-29,38.2-17.5,59.4
	C133.5,363.8,160,371.6,181.3,360z"/>
<polygon class="st4" points="389.8,225.9 417,225.9 417,218.5 398.2,218.5 398.2,185.6 389.8,185.6 "/>
<rect x="38.9" y="108.9" class="st3" width="11.4" height="54.8"/>
<polygon class="st1" points="74.9,576.5 84.6,590.4 84.6,560.8 94,560.8 94,607.6 86.3,607.6 69,583.2 64.2,576.4 64.2,607.6 
	54.9,607.6 54.9,560.8 64,560.8 "/>
<path class="st3" d="M320,386.2v17.1h-9.5v-45.8h18.9c9.6,0,16,5.2,16,14.5c0,7.3-4,11.9-10.4,13.5l12.1,17.8h-10.7L325,386.2H320
	L320,386.2z M320,378.4h8.8c4.8,0,7.2-2.5,7.2-6.3s-2.5-6.4-7.2-6.4H320V378.4z"/>
<polygon class="st1" points="312.2,113.1 307.9,113.1 292,154.7 300.7,154.7 304.3,144.7 312.2,144.7 312.2,137.4 307,137.4 
	312.1,123.6 312.2,123.8 "/>
<polygon class="st4" points="440,511.3 439.6,511.3 423.7,539.4 407.6,511.3 392.6,511.3 416.4,552.4 416.4,577.5 430.1,577.5 
	430.1,552.4 440,535.6 "/>
<path class="st0" d="M17.8,667.9"/>
</svg>
