<svg id="Layer_1" data-name="Layer 1" xmlns="http://www.w3.org/2000/svg" viewBox="0 0 1025.63 649.06"><defs><style>.cls-1{fill:#fff;}.cls-2{fill:#ef413d;}.cls-3{fill:#00b5ad;}.cls-4{fill:#ffd400;}</style></defs><title>website theme launch</title><polygon class="cls-1" points="1025.63 57.21 506.63 65.73 0 65.73 0 0 1025.63 0 1025.63 57.21"/><path class="cls-2" d="M604.73-875l5.07,13.81H599.65Zm-4.21-10.39-15.91,41.56h8.66l3.66-10h15.57l3.73,10H625l-15.91-41.56h-8.61Z" transform="translate(2.03 1028.03)"/><path class="cls-3" d="M737-682a87.74,87.74,0,0,1,28.5,2.22,941.26,941.26,0,0,1,258.13-291V-1028c-99.49,36.28-289,65.73-506.4,65.73C290-962.3,93.35-989.05-2-1028v584.17H0.05c24.62,9.87,55.79,18.94,92.28,27a739,739,0,0,1,70.18-288.46,68.89,68.89,0,0,1-14.29-17.31,70.26,70.26,0,0,1,25.93-95.93,70.26,70.26,0,0,1,95.93,25.93,70.26,70.26,0,0,1-25.93,95.93,70.26,70.26,0,0,1-51.71,7.32A705.37,705.37,0,0,0,126-410.07C229.21-390.75,366.48-379,517.19-379c217.42,0,406.92-24.51,506.4-60.79V-916.4A898.7,898.7,0,0,0,803.93-660.3a88.61,88.61,0,0,1,7.88,125.06,88.61,88.61,0,0,1-125.06,7.88,88.61,88.61,0,0,1-7.88-125.06A88.61,88.61,0,0,1,737-682ZM424.61-632.59H391.83v83.07H370.49v-83.07h-32.6v-18.53h86.72v18.53ZM653.09-908.27H619v15.68H650v12.76H619v17.08h34v13.22H604.3v-71.8h48.79v13.07Z" transform="translate(2.03 1028.03)"/><polyline class="cls-2" points="129.51 518 113.25 494.7 99.66 494.7 99.66 564.24 113.59 564.24 113.59 517.92 120.69 527.92"/><polygon class="cls-4" points="815.01 476.39 787.11 427.71 761.09 427.71 802.46 499.05 802.46 542.68 826.24 542.68 826.24 499.05 867.99 427.71 842.72 427.71 815.01 476.39"/><path class="cls-4" d="M246-734v32.49H226.58v-93.67H241.1m0,0h23.62c19.83,0,33,10.68,33,30.66S284.56-734,264.72-734H246m0-16.63h17.57c10.07,0,15-5.8,15-13.88,0-8.39-4.88-14-15-14H246m0,0v27.92" transform="translate(2.03 1028.03)"/><rect class="cls-2" x="882.38" y="165.35" width="11.44" height="54.85"/><path class="cls-3" d="M741.14-639.12a45.73,45.73,0,0,0-41,50,45.73,45.73,0,0,0,50,41,45.73,45.73,0,0,0,41-50A45.79,45.79,0,0,0,741.14-639.12Z" transform="translate(2.03 1028.03)"/><path class="cls-3" d="M226.63-725.74a35.91,35.91,0,0,0,13.61-48.92,35.91,35.91,0,0,0-48.92-13.61,35.91,35.91,0,0,0-13.61,48.92h0A36,36,0,0,0,226.63-725.74Z" transform="translate(2.03 1028.03)"/><polyline class="cls-2" points="120.27 527.34 146.02 563.66 157.46 563.66 157.46 494.12 143.53 494.12 143.53 538.06 129.1 517.41"/><path class="cls-4" d="M264.95-795.18H239.31l8,16.63h16.43c10.07,0,15,5.64,15,14,0,8.09-4.88,13.88-15,13.88h-3l8,16.48c17.69-1.3,29.15-11.84,29.15-30.38C297.9-784.5,284.77-795.18,264.95-795.18Z" transform="translate(2.03 1028.03)"/><polygon class="cls-4" points="594.86 614.63 628.83 614.63 628.83 605.35 605.36 605.35 605.36 564.24 594.86 564.24 594.86 614.63"/><polygon class="cls-4" points="867.99 427.71 842.72 427.71 815.01 476.39 814.54 475.57 814.54 485.19 794.42 485.19 802.46 499.05 802.46 542.68 826.24 542.68 826.24 499.05 867.99 427.71"/><polygon class="cls-2" points="606.87 142.63 602.57 142.63 586.67 184.17 595.33 184.17 598.99 174.16 606.87 174.16 606.87 166.86 601.69 166.86 606.77 153.05 606.87 153.32 606.87 142.63"/><path class="cls-4" d="M48.39-898.81v17.08H38.92v-45.81H57.79c9.62,0,16,5.15,16,14.55,0,7.31-4,11.94-10.44,13.5l12.08,17.76H64.73L53.39-898.81h-5Zm0-7.83h8.8c4.77,0,7.24-2.54,7.24-6.34S62-919.4,57.2-919.4h-8.8v12.76Z" transform="translate(2.03 1028.03)"/><path class="cls-1" d="M-2-379v-64.85c99.49,36.28,289,64.85,506.4,64.85H-2Z" transform="translate(2.03 1028.03)"/><path class="cls-1" d="M504.37-379h519.22V-441.8C982.85-426.94,927-414.06,860.32-404,762-388.35,638.53-379,504.37-379Z" transform="translate(2.03 1028.03)"/></svg>